<?xml version="1.0" encoding="utf-8"?>
<!-- Generator: Adobe Illustrator 20.0.0, SVG Export Plug-In . SVG Version: 6.00 Build 0)  -->
<svg version="1.1" id="Layer_1" xmlns="http://www.w3.org/2000/svg" xmlns:xlink="http://www.w3.org/1999/xlink" x="0px" y="0px"
	 viewBox="0 0 1000 1000" enable-background="new 0 0 1000 1000" xml:space="preserve">
<path fill="#5292C8" d="M769.9,522v175.4H613V302.6h157V478h135.3V244.9c0-82.4-67.4-149.8-149.8-149.8H500.4H245.3H95.5v149.8V478
	h134.6V302.6H569v394.7H230.1V522H95.5v233.1c0,82.4,67.4,149.8,149.8,149.8h255.1h255.1h149.8V755.1V522H769.9z"/>
<path fill="#F5B419" d="M403.1,427c-41.6,0-75.3,32.7-75.3,73s33.7,73,75.3,73s75.3-32.7,75.3-73S444.7,427,403.1,427z M403.1,534.1
	c-19.4,0-35.1-15.2-35.1-34.1c0-18.8,15.7-34.1,35.1-34.1c19.4,0,35.1,15.2,35.1,34.1C438.3,518.8,422.5,534.1,403.1,534.1z"/>
</svg>
