<svg id="Layer_1" data-name="Layer 1" xmlns="http://www.w3.org/2000/svg" viewBox="0 0 1000 1000"><defs><style>.cls-1{fill:#f5b419;}.cls-2{fill:#5292c8;}</style></defs><title>co</title><path class="cls-1" d="M636.71,562c-41.6,0-75.31,32.68-75.31,73s33.72,73,75.31,73S712,675.27,712,635,678.3,562,636.71,562Zm0,107.05c-19.4,0-35.13-15.25-35.13-34.05s15.73-34.05,35.13-34.05,35.13,15.25,35.13,34.05S656.11,669,636.71,669Z"/><path class="cls-2" d="M233.35,478V230.09H503.25V478h402V244.91c0-82.37-67.4-149.77-149.77-149.77H95.49V478Z"/><path class="cls-2" d="M770.16,522V769.91H233.35V522H95.49V755.09c0,82.37,67.4,149.77,149.77,149.77H905.21V522Z"/><rect class="cls-2" x="276.84" y="408.39" width="70.26" height="70.26"/><rect class="cls-2" x="276.84" y="522" width="70.26" height="70.26"/><rect class="cls-2" x="276.84" y="635.61" width="70.26" height="70.26"/><rect class="cls-2" x="276.84" y="294.78" width="70.26" height="70.26"/><rect class="cls-2" x="390.44" y="294.78" width="70.26" height="70.26" transform="translate(755.49 -95.66) rotate(90)"/><rect class="cls-2" x="390.44" y="408.06" width="70.26" height="70.26"/><rect class="cls-2" x="390.44" y="521.67" width="70.26" height="70.26"/><rect class="cls-2" x="390.44" y="635.28" width="70.26" height="70.26"/></svg>