<svg id="Layer_1" data-name="Layer 1" xmlns="http://www.w3.org/2000/svg" viewBox="0 0 1000 1000"><defs><style>.cls-1{fill:#f5b419;}.cls-2{fill:#5292c8;}</style></defs><title>YS-logo-quiz</title><path class="cls-1" d="M500,427c-41.6,0-75.31,32.68-75.31,73s33.72,73,75.31,73,75.31-32.68,75.31-73S541.55,427,500,427Zm0,107.05c-19.4,0-35.13-15.25-35.13-34.05s15.73-34.05,35.13-34.05,35.13,15.25,35.13,34.05S519.36,534.05,500,534.05Z"/><path class="cls-2" d="M861.21,522H600v76a2,2,0,0,1-2,2H402a2,2,0,0,1-2-2V522H139.49v51h-44V755.09c0,82.37,67.4,149.77,149.77,149.77H905.21V573h-44ZM578.12,851.08q-32.92,28.39-80.4,28.39-48.46,0-81.26-27.9t-32.8-70.74q0-53.12,54.58-88.85Q462,676.32,467,667.51T472,635h63.15v9.3q0,44.54-7,56.17t-36.84,33.65q-15.66,11.5-21.78,21.42t-6.12,24.6q0,18.11,11.5,28.51t27.9,10.4q43.32,0,48.71-61.19l67.07,9.55Q611,822.68,578.12,851.08Z"/><path class="cls-2" d="M139.49,478H400V402a2,2,0,0,1,2-2H598a2,2,0,0,1,2,2v76H861.21V427h44V244.91c0-82.37-67.4-149.77-149.77-149.77H95.49V427h44ZM423,153.54q32.92-28.39,80.4-28.39,48.46,0,81.26,27.9t32.8,70.74q0,53.12-54.58,88.85-23.74,15.67-28.76,24.48t-5,32.55H465.94v-9.3q0-44.54,7-56.17t36.84-33.65q15.66-11.5,21.78-21.42t6.12-24.6q0-18.11-11.5-28.51t-27.9-10.4q-43.32,0-48.71,61.19l-67.07-9.55Q390.06,181.94,423,153.54Z"/></svg>