<svg id="Layer_1" data-name="Layer 1" xmlns="http://www.w3.org/2000/svg" viewBox="0 0 809.72 809.72"><defs><style>.cls-1{fill:#f5b419;}.cls-2{fill:#5292c8;}</style></defs><title>sc</title><text x="-95.49" y="-95.14"></text><path class="cls-1" d="M365,292c-41.6,0-75.31,32.68-75.31,73s33.72,73,75.31,73,75.31-32.68,75.31-73S406.64,292,365,292Zm0,107.05c-19.4,0-35.13-15.25-35.13-34.05S345.64,331,365,331s35.13,15.25,35.13,34.05S384.45,399.1,365,399.1Z" transform="translate(-95.49 -95.14)"/><path class="cls-2" d="M230.35,476.93V230.09H500.25V476.93h405v-232c0-82.37-67.4-149.77-149.77-149.77H95.49V476.93Z" transform="translate(-95.49 -95.14)"/><path class="cls-2" d="M768.84,520.93v249H498.93v-249H95.49V755.09c0,82.37,67.4,149.77,149.77,149.77H905.21V520.93Z" transform="translate(-95.49 -95.14)"/></svg>