<svg id="Layer_1" data-name="Layer 1" xmlns="http://www.w3.org/2000/svg" viewBox="0 0 809.72 809.72"><defs><style>.cls-1{fill:#f5b419;}.cls-2{fill:#5292c8;}</style></defs><title>sc</title><text x="-95.49" y="-95.14"></text><path class="cls-1" d="M500.84,430c-41.6,0-75.31,32.68-75.31,73s33.72,73,75.31,73,75.31-32.68,75.31-73S542.43,430,500.84,430Zm0,107.05c-19.4,0-35.13-15.25-35.13-34.05s15.73-34.05,35.13-34.05S536,484.19,536,503,520.24,537.05,500.84,537.05Z" transform="translate(-95.49 -95.14)"/><path class="cls-2" d="M340.4,478,296.45,258.59H705.29L661.34,478H905.21V244.91c0-82.37-67.4-149.77-149.77-149.77H95.49V478Z" transform="translate(-95.49 -95.14)"/><path class="cls-2" d="M652.53,522,602.87,769.91h-204L349.21,522H95.49V755.09c0,82.37,67.4,149.77,149.77,149.77H905.21V522Z" transform="translate(-95.49 -95.14)"/></svg>