<svg id="Layer_1" data-name="Layer 1" xmlns="http://www.w3.org/2000/svg" viewBox="0 0 1000 1000"><defs><style>.cls-1{fill:#f5b419;}.cls-2{fill:#5292c8;}</style></defs><title>ws</title><path class="cls-1" d="M500.84,430c-41.6,0-75.31,32.68-75.31,73s33.72,73,75.31,73,75.31-32.68,75.31-73S542.43,430,500.84,430Zm0,107.05c-19.4,0-35.13-15.25-35.13-34.05s15.73-34.05,35.13-34.05S536,484.19,536,503,520.24,537.05,500.84,537.05Z"/><path class="cls-2" d="M712.4,637.23A62.47,62.47,0,1,0,762,710.31,62.45,62.45,0,0,0,712.4,637.23Z"/><path class="cls-2" d="M362.46,312.31a62.47,62.47,0,1,0-73.06,49.63A62.5,62.5,0,0,0,362.46,312.31Z"/><path class="cls-2" d="M351.13,478c-7.84-5.22-15.63-10.52-23.45-15.77v-2.32c2.7-7.63,5.54-15.21,8-22.91,1.24-3.81,3.37-4.9,7.3-4.7,11.6.58,23.22.64,34.82,1.12,3.09.13,4.89-.87,6.61-3.46a172.6,172.6,0,0,1,11.41-15.36c2.15-2.56,2.61-4.63,1.4-7.77C393.08,396,389.31,385,385.2,374.17c-1.07-2.82-.72-4.71,1.78-6.43,6.68-4.61,13.34-9.27,19.9-14.06,2.78-2,4.9-1.84,7.65.33,8.68,6.81,17.7,13.18,26.37,20,3.51,2.76,6.47,3.83,10.92,1.76a65.13,65.13,0,0,1,15.47-4.82c4.36-.81,6-3,7.1-7,3.55-12.25,7.54-24.37,11.35-36.54h30.22c2.79.78,3.65,3,4.38,5.51,3.15,10.77,6.55,21.47,9.57,32.27,1,3.57,2.65,5.49,6.37,6.4a134.33,134.33,0,0,1,16.54,5.33,7.13,7.13,0,0,0,7.89-1.19c9.17-7.13,18.59-13.93,27.76-21,2.53-2,4.51-2.35,7.17-.37q9.78,7.26,19.82,14.18c3,2,3.13,4.19,1.89,7.4-4.1,10.65-7.79,21.46-11.86,32.12-1.16,3-1.1,5.24,1.13,7.86a129.11,129.11,0,0,1,10,13.52c2,3.16,4.43,4.23,8.15,4,10.83-.52,21.67-.64,32.5-1,6.55-.2,6.68-.29,9,6.15,2.7,7.42,5.15,14.94,7.7,22.41v2.32c-7.29,4.86-14.56,9.76-21.87,14.61H905.21V244.91c0-82.37-67.4-149.77-149.77-149.77H95.49V478ZM176.76,288.26a22.31,22.31,0,0,0,.2-4.15l2.7-14.12a19.89,19.89,0,0,0,1.22-3.55c.33-2.22,1.53-3,3.69-3.27,10.46-1.48,20.88-3.16,31.33-4.72a3.15,3.15,0,0,0,2.42-1.69c3.17-5,6.39-9.93,9.72-14.8a3.31,3.31,0,0,0,.63-3.07c-2.78-10.53-5.46-21.09-8.25-31.62a2.27,2.27,0,0,1,1-2.87q10-6.73,19.93-13.5c1.07-.73,1.85-.5,2.84.23q13.15,9.7,26.38,19.28a3.83,3.83,0,0,0,2.65.68c6-1.15,12-2.41,17.92-3.73a3.64,3.64,0,0,0,2.13-1.35c1.85-2.91,3.54-5.93,5.29-8.91,3.84-6.53,7.7-13,11.5-19.59a2.36,2.36,0,0,1,2.74-1.34c1.56.23,3.16.2,4.75.28l14.12,2.7a8.25,8.25,0,0,0,2,.78c3.49.36,5.11,2.26,5,5.73a3.21,3.21,0,0,0,.09.59c1.5,9.78,3,19.57,4.54,29.34a3.55,3.55,0,0,0,1.48,2c4.9,3.3,9.89,6.45,14.77,9.79a3.49,3.49,0,0,0,3.24.69c10.53-2.79,21.1-5.46,31.63-8.24a2.24,2.24,0,0,1,2.71.86,132.13,132.13,0,0,1,13.54,19.92,2.39,2.39,0,0,1-.19,3q-9.78,13.22-19.41,26.54a3.29,3.29,0,0,0-.57,2.3c1.12,5.59,2.53,11.14,3.48,16.76a5.55,5.55,0,0,0,3,4.38c9,5.2,18,10.54,27,15.77a2.47,2.47,0,0,1,1.45,2.87,46.24,46.24,0,0,0-.27,4.72l-2.7,14.12a7.92,7.92,0,0,0-.77,2c-.34,3.65-2.43,5.14-5.92,5a1.09,1.09,0,0,0-.2,0c-9.65,1.47-19.31,3-29,4.4a3.72,3.72,0,0,0-2.91,2q-4.53,7.26-9.38,14.32a3.83,3.83,0,0,0-.8,3.59c2.77,10.4,5.4,20.83,8.16,31.23a2.53,2.53,0,0,1-1.12,3.18c-6.08,4.15-12.11,8.39-18.24,12.46-2.92,1.93-3,1.73-5.86-.41q-12.65-9.37-25.39-18.61a2.79,2.79,0,0,0-2-.36c-5.52,1.13-11,2.52-16.56,3.44a5.88,5.88,0,0,0-4.68,3.23c-5.11,8.94-10.39,17.78-15.54,26.69-.77,1.33-1.58,1.92-3.17,1.63a35.37,35.37,0,0,0-4.55-.26L270.51,422a18.34,18.34,0,0,0-1.83-.74c-4.6-1.33-4.52-1.33-5.24-6.16q-2.18-14.79-4.57-29.54a3.55,3.55,0,0,0-1.48-2c-4.95-3.34-10-6.54-14.92-9.91a3.33,3.33,0,0,0-3.08-.6c-10.53,2.78-21.09,5.46-31.62,8.24a2.26,2.26,0,0,1-2.73-.83,132.43,132.43,0,0,1-13.43-19.74,2.66,2.66,0,0,1,.18-3.37q9.72-13.13,19.3-26.36a3.32,3.32,0,0,0,.6-2.3c-1.19-6.12-2.48-12.22-3.81-18.31a3.16,3.16,0,0,0-1.18-1.82c-2-1.31-4.09-2.47-6.15-3.68-7.28-4.26-14.55-8.54-21.85-12.76C177.17,291.16,176.31,290.2,176.76,288.26Z"/><path class="cls-2" d="M650.55,522c7.84,5.22,15.63,10.52,23.45,15.77v2.32c-2.7,7.63-5.54,15.21-8,22.91-1.24,3.81-3.37,4.9-7.3,4.7-11.6-.58-23.22-.64-34.82-1.12-3.09-.13-4.89.87-6.61,3.46a172.61,172.61,0,0,1-11.41,15.36c-2.15,2.56-2.61,4.63-1.4,7.77,4.17,10.83,7.94,21.82,12.06,32.67,1.07,2.82.73,4.71-1.78,6.43-6.68,4.61-13.34,9.27-19.9,14.06-2.78,2-4.9,1.84-7.65-.33-8.67-6.81-17.7-13.18-26.37-20-3.51-2.76-6.47-3.83-10.92-1.76a65.13,65.13,0,0,1-15.47,4.82c-4.36.81-6,3-7.1,7-3.55,12.25-7.54,24.37-11.35,36.54H485.73c-2.79-.78-3.65-3-4.38-5.51-3.15-10.77-6.55-21.47-9.57-32.27-1-3.57-2.65-5.49-6.37-6.4a134.28,134.28,0,0,1-16.54-5.33,7.13,7.13,0,0,0-7.89,1.19c-9.17,7.13-18.59,13.93-27.76,21-2.53,2-4.51,2.35-7.17.37q-9.78-7.26-19.82-14.18c-3-2-3.13-4.19-1.89-7.4,4.1-10.65,7.79-21.46,11.86-32.12,1.16-3,1.1-5.24-1.13-7.86a129.12,129.12,0,0,1-10-13.52c-2-3.16-4.43-4.23-8.15-4-10.83.52-21.67.64-32.5,1-6.55.2-6.68.29-9-6.15-2.7-7.42-5.15-14.94-7.7-22.41v-2.32c7.29-4.86,14.56-9.76,21.87-14.61H95.49V755.09c0,82.37,67.4,149.77,149.77,149.77H905.21V522ZM825,710.3a46.24,46.24,0,0,0-.27,4.72L822,729.15a7.92,7.92,0,0,0-.77,2c-.34,3.65-2.43,5.14-5.92,5a1.09,1.09,0,0,0-.2,0c-9.65,1.47-19.31,3-29,4.4a3.72,3.72,0,0,0-2.91,2q-4.53,7.26-9.38,14.32a3.83,3.83,0,0,0-.8,3.59c2.77,10.4,5.4,20.83,8.16,31.23a2.53,2.53,0,0,1-1.12,3.18C774,799,768,803.27,761.88,807.34c-2.92,1.93-3,1.73-5.86-.41q-12.65-9.37-25.39-18.61a2.79,2.79,0,0,0-2-.36c-5.52,1.13-11,2.52-16.56,3.44a5.88,5.88,0,0,0-4.68,3.23c-5.11,8.94-10.39,17.78-15.54,26.69-.77,1.33-1.58,1.92-3.17,1.63a35.37,35.37,0,0,0-4.55-.26L670,820a18.34,18.34,0,0,0-1.83-.74c-4.6-1.33-4.52-1.33-5.24-6.16q-2.18-14.79-4.57-29.54a3.55,3.55,0,0,0-1.48-2c-4.95-3.34-10-6.54-14.92-9.91a3.33,3.33,0,0,0-3.08-.6c-10.53,2.78-21.09,5.46-31.62,8.24a2.26,2.26,0,0,1-2.73-.83,132.43,132.43,0,0,1-13.43-19.74,2.66,2.66,0,0,1,.18-3.37q9.72-13.13,19.3-26.36a3.32,3.32,0,0,0,.6-2.3c-1.19-6.12-2.48-12.22-3.81-18.31a3.16,3.16,0,0,0-1.18-1.82c-2-1.31-4.09-2.47-6.15-3.68-7.28-4.26-14.55-8.54-21.85-12.76-1.53-.88-2.38-1.84-1.93-3.78a22.31,22.31,0,0,0,.2-4.15l2.7-14.12a19.89,19.89,0,0,0,1.22-3.55c.33-2.22,1.53-3,3.69-3.27,10.46-1.48,20.88-3.16,31.33-4.72a3.15,3.15,0,0,0,2.42-1.69c3.17-5,6.39-9.93,9.72-14.8a3.31,3.31,0,0,0,.63-3.07c-2.78-10.53-5.46-21.09-8.25-31.62a2.27,2.27,0,0,1,1-2.87q10-6.73,19.93-13.5c1.07-.73,1.85-.5,2.84.23q13.15,9.7,26.38,19.28a3.83,3.83,0,0,0,2.65.68c6-1.15,12-2.41,17.92-3.73a3.64,3.64,0,0,0,2.13-1.35c1.85-2.91,3.54-5.93,5.29-8.91,3.84-6.53,7.7-13,11.5-19.59a2.36,2.36,0,0,1,2.74-1.34c1.56.23,3.16.2,4.75.28l14.12,2.7a8.25,8.25,0,0,0,2,.78c3.49.36,5.11,2.26,5,5.73a3.21,3.21,0,0,0,.09.59c1.5,9.78,3,19.57,4.54,29.34a3.55,3.55,0,0,0,1.48,2c4.9,3.3,9.89,6.45,14.77,9.79a3.49,3.49,0,0,0,3.24.69c10.53-2.79,21.1-5.46,31.63-8.24a2.24,2.24,0,0,1,2.71.86,132.14,132.14,0,0,1,13.54,19.92,2.39,2.39,0,0,1-.19,3q-9.78,13.22-19.41,26.54a3.29,3.29,0,0,0-.57,2.3c1.12,5.59,2.53,11.14,3.48,16.76a5.55,5.55,0,0,0,3,4.38c9,5.2,18,10.54,27,15.77A2.47,2.47,0,0,1,825,710.3Z"/></svg>