<?xml version="1.0" encoding="utf-8"?>
<!-- Generator: Adobe Illustrator 20.0.0, SVG Export Plug-In . SVG Version: 6.00 Build 0)  -->
<svg version="1.1" id="Layer_1" xmlns="http://www.w3.org/2000/svg" xmlns:xlink="http://www.w3.org/1999/xlink" x="0px" y="0px"
	 viewBox="0 0 1000 1000" enable-background="new 0 0 1000 1000" xml:space="preserve">
<path fill="#F5B419" d="M500,427c-41.6,0-75.3,32.7-75.3,73s33.7,73,75.3,73s75.3-32.7,75.3-73S541.6,427,500,427z M500,534.1
	c-19.4,0-35.1-15.2-35.1-34.1c0-18.8,15.7-34.1,35.1-34.1c19.4,0,35.1,15.2,35.1,34.1C535.1,518.8,519.4,534.1,500,534.1z"/>
<path fill="#5292C8" d="M860.9,573v-51H678.1v155.6H323v-36.2V522H139.1v51h-44v182.1c0,82.4,67.4,149.8,149.8,149.8H500h255.1
	h149.8V755.1V573H860.9z"/>
<path fill="#5292C8" d="M755.1,95.1H500H244.9H95.1v149.8v181.7h44V478h183.3V322.4h355.1V478h183.3v-51.4h44V244.9
	C904.9,162.5,837.5,95.1,755.1,95.1z"/>
</svg>
