<?xml version="1.0" encoding="utf-8"?>
<!-- Generator: Adobe Illustrator 20.0.0, SVG Export Plug-In . SVG Version: 6.00 Build 0)  -->
<svg version="1.1" id="Layer_1" xmlns="http://www.w3.org/2000/svg" xmlns:xlink="http://www.w3.org/1999/xlink" x="0px" y="0px"
	 viewBox="0 0 2744 629.3" enable-background="new 0 0 2744 629.3" xml:space="preserve">
<path fill="#F5B419" d="M244.3,4.4l-89,164v119.3H89V168.3L0,4.4h77l54,107.3L184.8,4.4H244.3z"/>
<path fill="#F5B419" d="M358.1,292c-38.2,0-67.7-14.3-88.6-43s-31.3-63.3-31.3-104c0-41.4,10.6-75.9,31.7-103.6
	C291.2,13.8,321.3,0,360.4,0c39.5,0,69.4,14.8,89.5,44.3c20.1,29.5,30.2,63.3,30.2,101.4c0,41.1-10.4,75.8-31.1,104
	C428.2,277.9,398,292,358.1,292z M360,54.2c-34.8,0-52.2,30.6-52.2,91.7c0,61.3,17.4,91.9,52.2,91.9c33.7,0,50.5-30.6,50.5-91.7
	C410.5,84.8,393.7,54.2,360,54.2z"/>
<path fill="#F5B419" d="M746.8,4.4v176.4c0,28.5-3.3,49.7-9.8,63.6c-6.5,13.9-18.5,25.3-36,34.2c-17.5,8.9-39.9,13.4-67.1,13.4
	c-27.3,0-49-4-65.1-12c-16.1-8-28.2-19.4-36.2-34.2c-8-14.8-12-36.5-12-65V4.4h72v176.4c0,15.2,1.3,26.4,3.8,33.6
	c2.6,7.2,7.7,12.9,15.4,17.1c7.7,4.2,17.1,6.3,28.3,6.3c12.5,0,22.6-2.1,30.4-6.2c7.8-4.2,13-9.7,15.6-16.5
	c2.6-6.8,3.8-18.3,3.8-34.4V4.4H746.8z"/>
<path fill="#F5B419" d="M1017.4,4.4v283.3h-56.6L849.9,96.3c0.1,4.8,0.3,8,0.4,9.5c0.6,4.8,0.8,8.9,0.8,12.2v169.6h-51.7V4.4H871
	l96.4,167.1c-0.8-8.3-1.2-14.6-1.2-18.9V4.4H1017.4z"/>
<path fill="#F5B419" d="M1294.9,136.2v151.5h-30.3c-2.2-10.7-5.3-21.5-9.4-32.6c-20.2,24.6-46,36.9-77.3,36.9
	c-37,0-65.7-13.2-86.3-39.6c-20.6-26.4-30.8-60.6-30.8-102.5c0-45.1,11-81.4,32.9-108.8c21.9-27.4,51.7-41.1,89.4-41.1
	c31.5,0,57,8.9,76.4,26.6c19.4,17.7,31.2,41.3,35.5,70.8l-63.1,8.3c-5.1-34.3-21.4-51.5-48.8-51.5c-18,0-31.6,8.1-40.8,24.4
	c-9.2,16.3-13.8,39.5-13.8,69.6c0,29.1,5,51.3,14.9,66.6c10,15.4,24.1,23,42.5,23c11.9,0,22.5-3.9,31.9-11.6
	c9.3-7.7,14-20.1,14-37.2h-53.3v-52.9H1294.9z"/>
<path fill="#5292C8" d="M228.6,403.9l-56.5,18.9c-7.6-22.4-23.7-33.6-48.2-33.6c-26.2,0-39.3,8.5-39.3,25.5c0,6.8,2.5,12.5,7.4,17.2
	c4.9,4.7,16,8.8,33.3,12.3c28.9,5.8,50,11.7,63.4,17.7c13.4,5.9,24.7,15.5,33.9,28.7c9.2,13.2,13.8,28,13.8,44.3
	c0,25.6-9.9,47.7-29.6,66.4c-19.7,18.7-48.9,28-87.6,28c-29,0-53.7-6.6-74.1-19.8c-20.4-13.2-33.8-32.8-40.3-58.8l61.4-13.9
	c6.9,26.4,26.1,39.6,57.6,39.6c15.2,0,26.5-2.9,34-8.8c7.5-5.9,11.2-12.9,11.2-21.1c0-8.3-3.4-14.7-10.2-19.3
	c-6.8-4.6-19.8-8.9-39.2-12.9c-36.1-7.5-61.8-17.7-77.1-30.6c-15.3-12.9-23-31.9-23-56.8c0-25.2,9.2-46.4,27.5-63.7
	c18.3-17.3,43.2-25.9,74.5-25.9C176.9,337.3,212.7,359.5,228.6,403.9z"/>
<path fill="#5292C8" d="M461.2,341.6v56h-70.2v227.3h-67.2V397.7h-70.6v-56H461.2z"/>
<path fill="#5292C8" d="M609,341.6l88.7,283.3h-71.3l-17.5-58.3h-91.6l-17.8,58.3h-58.2l90.8-283.3H609z M533.2,514.3h60l-29.8-99.4
	L533.2,514.3z"/>
<path fill="#5292C8" d="M886.1,341.6v56H816v227.3h-67.2V397.7h-70.6v-56H886.1z"/>
<path fill="#5292C8" d="M980.8,341.6v283.3h-66.2V341.6H980.8z"/>
<path fill="#5292C8" d="M1233.4,403.9l-56.5,18.9c-7.6-22.4-23.7-33.6-48.2-33.6c-26.2,0-39.3,8.5-39.3,25.5
	c0,6.8,2.5,12.5,7.4,17.2c4.9,4.7,16,8.8,33.3,12.3c28.9,5.8,50,11.7,63.4,17.7c13.4,5.9,24.7,15.5,33.9,28.7
	c9.2,13.2,13.8,28,13.8,44.3c0,25.6-9.9,47.7-29.6,66.4c-19.7,18.7-48.9,28-87.6,28c-29,0-53.7-6.6-74.1-19.8
	c-20.4-13.2-33.8-32.8-40.3-58.8l61.4-13.9c6.9,26.4,26.1,39.6,57.6,39.6c15.2,0,26.5-2.9,34-8.8c7.5-5.9,11.2-12.9,11.2-21.1
	c0-8.3-3.4-14.7-10.2-19.3c-6.8-4.6-19.8-8.9-39.2-12.9c-36.1-7.5-61.8-17.7-77.1-30.6c-15.3-12.9-23-31.9-23-56.8
	c0-25.2,9.2-46.4,27.5-63.7c18.3-17.3,43.2-25.9,74.5-25.9C1181.7,337.3,1217.5,359.5,1233.4,403.9z"/>
<path fill="#5292C8" d="M1466,341.6v56h-70.2v227.3h-67.2V397.7h-70.6v-56H1466z"/>
<path fill="#5292C8" d="M1560.7,341.6v283.3h-66.2V341.6H1560.7z"/>
<path fill="#5292C8" d="M1846.1,447.1l-69.5,4.4c-1-40-16.6-60-46.8-60c-34.7,0-52,30.8-52,92.4c0,35.6,4.7,59.7,14.1,72.3
	c9.4,12.7,22.6,19,39.5,19c27.5,0,44.2-17.9,50.3-53.6l64.3,3.9c-4.2,33.9-16.8,59.7-37.9,77.3c-21.1,17.6-46.9,26.5-77.5,26.5
	c-37.5,0-68-12.9-91.4-38.8c-23.5-25.9-35.2-61.6-35.2-107.3c0-42.8,11.3-77.8,34-105c22.7-27.3,53.7-40.9,93-40.9
	C1799.2,337.3,1837.5,373.9,1846.1,447.1z"/>
<path fill="#5292C8" d="M1950.5,341.6v283.3h-66.2V341.6H1950.5z"/>
<path fill="#5292C8" d="M2146.6,341.6l88.7,283.3h-71.3l-17.5-58.3h-91.6l-17.8,58.3h-58.2l90.8-283.3H2146.6z M2070.8,514.3h60
	l-29.8-99.4L2070.8,514.3z"/>
<path fill="#5292C8" d="M2483.7,341.6v283.3h-56.6l-110.9-191.4c0.1,4.8,0.3,8,0.4,9.5c0.6,4.8,0.8,8.9,0.8,12.2v169.6h-51.7V341.6
	h71.5l96.4,167.1c-0.8-8.3-1.2-14.6-1.2-18.9V341.6H2483.7z"/>
<path fill="#5292C8" d="M2736.3,403.9l-56.5,18.9c-7.6-22.4-23.7-33.6-48.2-33.6c-26.2,0-39.3,8.5-39.3,25.5
	c0,6.8,2.5,12.5,7.4,17.2c4.9,4.7,16,8.8,33.3,12.3c28.9,5.8,50,11.7,63.4,17.7c13.4,5.9,24.7,15.5,33.9,28.7
	c9.2,13.2,13.8,28,13.8,44.3c0,25.6-9.9,47.7-29.6,66.4c-19.7,18.7-48.9,28-87.6,28c-29,0-53.7-6.6-74.1-19.8
	c-20.4-13.2-33.8-32.8-40.3-58.8l61.4-13.9c6.9,26.4,26.1,39.6,57.6,39.6c15.2,0,26.5-2.9,34-8.8c7.5-5.9,11.2-12.9,11.2-21.1
	c0-8.3-3.4-14.7-10.2-19.3c-6.8-4.6-19.8-8.9-39.2-12.9c-36.1-7.5-61.8-17.7-77.1-30.6c-15.3-12.9-23-31.9-23-56.8
	c0-25.2,9.2-46.4,27.5-63.7c18.3-17.3,43.2-25.9,74.5-25.9C2684.6,337.3,2720.4,359.5,2736.3,403.9z"/>
</svg>
